<mxfile host="Electron" modified="2024-06-02T16:18:52.768Z" agent="Mozilla/5.0 (Macintosh; Intel Mac OS X 10_15_7) AppleWebKit/537.36 (KHTML, like Gecko) draw.io/24.4.8 Chrome/124.0.6367.207 Electron/30.0.6 Safari/537.36" etag="GNpP_CdQkHy2yZvd-Nu6" version="24.4.8" type="device">
  <diagram name="Страница — 1" id="pjJyClEeoa-ibC_K3hpk">
    <mxGraphModel dx="1114" dy="774" grid="1" gridSize="10" guides="1" tooltips="1" connect="1" arrows="1" fold="1" page="1" pageScale="1" pageWidth="827" pageHeight="1169" math="0" shadow="0">
      <root>
        <mxCell id="0" />
        <mxCell id="1" parent="0" />
        <mxCell id="nm3F6p0E2CoIKTKsHv6w-14" style="edgeStyle=orthogonalEdgeStyle;rounded=0;orthogonalLoop=1;jettySize=auto;html=1;entryX=0;entryY=0.5;entryDx=0;entryDy=0;" edge="1" parent="1" source="nm3F6p0E2CoIKTKsHv6w-7" target="nm3F6p0E2CoIKTKsHv6w-12">
          <mxGeometry relative="1" as="geometry" />
        </mxCell>
        <mxCell id="nm3F6p0E2CoIKTKsHv6w-16" style="edgeStyle=orthogonalEdgeStyle;rounded=0;orthogonalLoop=1;jettySize=auto;html=1;entryX=0;entryY=0.5;entryDx=0;entryDy=0;" edge="1" parent="1" source="nm3F6p0E2CoIKTKsHv6w-7" target="nm3F6p0E2CoIKTKsHv6w-15">
          <mxGeometry relative="1" as="geometry" />
        </mxCell>
        <mxCell id="nm3F6p0E2CoIKTKsHv6w-18" style="edgeStyle=orthogonalEdgeStyle;rounded=0;orthogonalLoop=1;jettySize=auto;html=1;" edge="1" parent="1" source="nm3F6p0E2CoIKTKsHv6w-7" target="nm3F6p0E2CoIKTKsHv6w-17">
          <mxGeometry relative="1" as="geometry" />
        </mxCell>
        <mxCell id="nm3F6p0E2CoIKTKsHv6w-20" style="edgeStyle=orthogonalEdgeStyle;rounded=0;orthogonalLoop=1;jettySize=auto;html=1;entryX=0;entryY=0.5;entryDx=0;entryDy=0;" edge="1" parent="1" source="nm3F6p0E2CoIKTKsHv6w-7" target="nm3F6p0E2CoIKTKsHv6w-19">
          <mxGeometry relative="1" as="geometry" />
        </mxCell>
        <mxCell id="nm3F6p0E2CoIKTKsHv6w-22" style="edgeStyle=orthogonalEdgeStyle;rounded=0;orthogonalLoop=1;jettySize=auto;html=1;entryX=0;entryY=0.5;entryDx=0;entryDy=0;" edge="1" parent="1" source="nm3F6p0E2CoIKTKsHv6w-7" target="nm3F6p0E2CoIKTKsHv6w-21">
          <mxGeometry relative="1" as="geometry" />
        </mxCell>
        <mxCell id="nm3F6p0E2CoIKTKsHv6w-24" style="edgeStyle=orthogonalEdgeStyle;rounded=0;orthogonalLoop=1;jettySize=auto;html=1;entryX=0;entryY=0.5;entryDx=0;entryDy=0;" edge="1" parent="1" source="nm3F6p0E2CoIKTKsHv6w-7" target="nm3F6p0E2CoIKTKsHv6w-23">
          <mxGeometry relative="1" as="geometry" />
        </mxCell>
        <mxCell id="nm3F6p0E2CoIKTKsHv6w-7" value="Пользователь" style="shape=umlActor;verticalLabelPosition=bottom;verticalAlign=top;html=1;outlineConnect=0;" vertex="1" parent="1">
          <mxGeometry x="30" y="170" width="40" height="90" as="geometry" />
        </mxCell>
        <mxCell id="nm3F6p0E2CoIKTKsHv6w-12" value="Просмотр заказов" style="ellipse;whiteSpace=wrap;html=1;" vertex="1" parent="1">
          <mxGeometry x="190" y="10" width="120" height="80" as="geometry" />
        </mxCell>
        <mxCell id="nm3F6p0E2CoIKTKsHv6w-15" value="Доступные рестораны" style="ellipse;whiteSpace=wrap;html=1;" vertex="1" parent="1">
          <mxGeometry x="190" y="400" width="120" height="80" as="geometry" />
        </mxCell>
        <mxCell id="nm3F6p0E2CoIKTKsHv6w-17" value="Просмотр меню ресторана" style="ellipse;whiteSpace=wrap;html=1;" vertex="1" parent="1">
          <mxGeometry x="190" y="110" width="120" height="80" as="geometry" />
        </mxCell>
        <mxCell id="nm3F6p0E2CoIKTKsHv6w-19" value="Занесение актуального адреса для доставки" style="ellipse;whiteSpace=wrap;html=1;" vertex="1" parent="1">
          <mxGeometry x="190" y="300" width="120" height="80" as="geometry" />
        </mxCell>
        <mxCell id="nm3F6p0E2CoIKTKsHv6w-21" value="Составление корзины" style="ellipse;whiteSpace=wrap;html=1;" vertex="1" parent="1">
          <mxGeometry x="190" y="210" width="120" height="80" as="geometry" />
        </mxCell>
        <mxCell id="nm3F6p0E2CoIKTKsHv6w-23" value="Сделать заказ" style="ellipse;whiteSpace=wrap;html=1;" vertex="1" parent="1">
          <mxGeometry x="190" y="505" width="120" height="80" as="geometry" />
        </mxCell>
        <mxCell id="nm3F6p0E2CoIKTKsHv6w-29" value="Ресторан" style="shape=umlActor;verticalLabelPosition=bottom;verticalAlign=top;html=1;outlineConnect=0;" vertex="1" parent="1">
          <mxGeometry x="680" y="140" width="40" height="90" as="geometry" />
        </mxCell>
        <mxCell id="nm3F6p0E2CoIKTKsHv6w-30" value="Курьер" style="shape=umlActor;verticalLabelPosition=bottom;verticalAlign=top;html=1;outlineConnect=0;" vertex="1" parent="1">
          <mxGeometry x="470" y="560" width="40" height="90" as="geometry" />
        </mxCell>
      </root>
    </mxGraphModel>
  </diagram>
</mxfile>
